<svg width="14" height="14" viewBox="0 0 14 14" fill="none" xmlns="http://www.w3.org/2000/svg">
<path fill-rule="evenodd" clip-rule="evenodd" d="M8.1957 8.197C7.9797 8.413 7.74574 8.5921 7.49378 8.737C6.94397 9.0781 6.31498 9.25 5.64909 9.25C3.66042 9.25 2.04968 7.63901 2.04968 5.65002C2.04968 3.67002 3.66042 2.05003 5.64909 2.05003C7.63776 2.05003 9.2485 3.67002 9.2485 5.65002C9.2485 5.97402 9.2035 6.29802 9.1216 6.60312C9.0406 6.91902 8.9066 7.21602 8.7356 7.49502C8.5907 7.75601 8.4026 7.99001 8.1957 8.197ZM13.3518 11.4451L10.682 8.7757C10.4705 8.5642 10.3967 8.2411 10.5263 7.97201C10.6631 7.68491 10.7746 7.38702 10.8592 7.08102C10.9753 6.64992 11.0374 6.21252 11.0473 5.76612C11.1013 3.15522 9.199 0.790032 6.62813 0.336432C2.81546 -0.335868 -0.448301 3.01573 0.379559 6.84972C0.824989 8.9098 2.51851 10.5577 4.58906 10.9492C5.76427 11.1715 6.91158 11.0194 7.91671 10.5496C8.202 10.4173 8.5358 10.4542 8.759 10.6765L11.4432 13.3531C11.7051 13.624 12.056 13.75 12.398 13.75C12.7399 13.75 13.09 13.624 13.3518 13.3531C13.8827 12.8311 13.8827 11.977 13.3518 11.4451Z" fill="white"/>
</svg>
